<svg width="15" height="17" viewBox="0 0 15 17" fill="none" xmlns="http://www.w3.org/2000/svg">
<path d="M0 12.1684V4.25149L7.35325 0L14.711 4.24851V12.1684L12.5368 10.9143V5.79939C12.5366 5.70223 12.5084 5.60719 12.4555 5.5257C12.4025 5.44421 12.3272 5.37976 12.2385 5.34009L7.59781 2.65588C7.52224 2.61177 7.43627 2.5886 7.34877 2.58877C7.26082 2.58876 7.17442 2.61191 7.09825 2.65588L2.45754 5.34009C2.36896 5.37991 2.29373 5.4444 2.24084 5.52585C2.18795 5.60731 2.15964 5.70227 2.1593 5.79939V10.9143L0 12.1684Z" fill="white"/>
<path d="M0.496582 13.0408L2.67377 11.7852L7.06097 14.3203C7.14626 14.3805 7.2481 14.4128 7.3525 14.4128C7.4569 14.4128 7.55875 14.3805 7.64404 14.3203L12.0327 11.7852L14.2099 13.0408L7.35027 17L0.496582 13.0408Z" fill="white"/>
<path d="M7.85878 11.1842C7.26229 11.1842 6.67623 11.1842 6.08571 11.1842C6.01748 11.1808 5.9499 11.1693 5.88439 11.1499C5.53122 11.0626 5.21709 10.8604 4.99142 10.575C4.76574 10.2897 4.64132 9.93745 4.63773 9.57367C4.63773 8.79973 4.64667 8.02578 4.63773 7.25183C4.63813 6.88428 4.77007 6.52902 5.00967 6.2503C5.24927 5.97159 5.58072 5.78783 5.94404 5.73227C6.04255 5.71544 6.14236 5.70745 6.24229 5.70841C7.03413 5.70841 7.82746 5.70841 8.6193 5.70841C8.86596 5.70486 9.10973 5.76171 9.32937 5.874C9.549 5.98628 9.73783 6.1506 9.87939 6.35262L9.91667 6.40929C9.92145 6.41992 9.92544 6.43088 9.9286 6.44209L7.26229 8.71323L6.24527 7.2742L5.29536 8.01982L5.92615 8.79376L7.0386 10.1582C7.07141 10.1985 7.1072 10.2358 7.1415 10.2746C7.15064 10.3066 7.16419 10.3372 7.18176 10.3655C7.3458 10.5579 7.5143 10.7473 7.67685 10.9411C7.74246 11.0112 7.79913 11.0977 7.85878 11.1842Z" fill="white"/>
<path d="M7.85879 11.1842C7.79914 11.1022 7.74247 11.0157 7.67686 10.9396C7.51432 10.7458 7.34581 10.5564 7.18177 10.364C7.1642 10.3357 7.15065 10.3051 7.14151 10.2731L10.1404 7.62613C10.1404 7.67087 10.1404 7.69771 10.1404 7.72604C10.1404 8.34192 10.1404 8.9578 10.1404 9.57367C10.1433 9.93607 10.0236 10.2888 9.80083 10.5747C9.57805 10.8605 9.26522 11.0627 8.91309 11.1484C8.75755 11.1756 8.59969 11.187 8.44186 11.1827C8.24651 11.1842 8.05265 11.1842 7.85879 11.1842Z" fill="white"/>
</svg>
