<svg xmlns="http://www.w3.org/2000/svg" width="33" height="33" viewBox="0 0 33 33"><defs><style>.a{fill:#fff2d6;}.b{fill:#c68f17;}</style></defs><circle class="a" cx="16.5" cy="16.5" r="16.5"/><path class="b" d="M17.95,2a3.665,3.665,0,0,0-2.65.973,3.772,3.772,0,0,0-1,2.755v1.52H12.328A.328.328,0,0,0,12,7.576V10.2a.328.328,0,0,0,.328.328H14.3V16.76a.328.328,0,0,0,.328.328h2.624a.328.328,0,0,0,.328-.328V10.528h2.3a.328.328,0,0,0,.325-.287l.328-2.624a.328.328,0,0,0-.325-.369H17.576V5.936a.651.651,0,0,1,.656-.656H20.2a.328.328,0,0,0,.328-.328V2.441a.328.328,0,0,0-.285-.325C19.953,2.078,18.907,2,17.95,2Zm0,.656c.8,0,1.573.064,1.922.1V4.624h-1.64A1.317,1.317,0,0,0,16.92,5.936v1.64a.328.328,0,0,0,.328.328h2.581l-.246,1.968H17.248a.328.328,0,0,0-.328.328v6.232H14.952V10.2a.328.328,0,0,0-.328-.328H12.656V7.9h1.968a.328.328,0,0,0,.328-.328V5.729a3.1,3.1,0,0,1,.811-2.29A2.993,2.993,0,0,1,17.95,2.656Z" transform="translate(0 7)"/></svg>