<svg xmlns="http://www.w3.org/2000/svg" width="33" height="33" viewBox="0 0 33 33"><defs><style>.a{fill:#fff2d6;}.b{fill:#c68f17;}</style></defs><circle class="a" cx="16.5" cy="16.5" r="16.5"/><path class="b" d="M5.478,11.743c-1.485,0-1.679-.007-2.259-.035a3.808,3.808,0,0,1-1.33-.274,2.673,2.673,0,0,1-.971-.677,2.907,2.907,0,0,1-.632-1.04A4.6,4.6,0,0,1,.033,8.293C.006,7.667,0,7.459,0,5.872s.006-1.8.033-2.421A4.6,4.6,0,0,1,.288,2.026,2.905,2.905,0,0,1,.919.986,2.673,2.673,0,0,1,1.89.308,3.81,3.81,0,0,1,3.219.035C3.8.007,3.991,0,5.478,0S7.159.007,7.737.035a3.812,3.812,0,0,1,1.33.273,2.672,2.672,0,0,1,.97.677,2.9,2.9,0,0,1,.632,1.04,4.619,4.619,0,0,1,.254,1.425c.027.624.033.831.033,2.421s-.006,1.8-.033,2.421a4.621,4.621,0,0,1-.254,1.426,2.9,2.9,0,0,1-.632,1.04,2.672,2.672,0,0,1-.97.677,3.81,3.81,0,0,1-1.33.274C7.157,11.737,6.964,11.743,5.478,11.743Zm0-10.686c-1.465,0-1.638.006-2.213.034a2.861,2.861,0,0,0-1.017.2,1.7,1.7,0,0,0-.63.439,1.841,1.841,0,0,0-.409.676A3.431,3.431,0,0,0,1.019,3.5c-.026.611-.032.8-.032,2.373s.006,1.761.032,2.373a3.442,3.442,0,0,0,.189,1.09,1.84,1.84,0,0,0,.409.675,1.7,1.7,0,0,0,.63.439,2.842,2.842,0,0,0,1.017.2c.575.028.748.034,2.213.034s1.638-.006,2.214-.034a2.84,2.84,0,0,0,1.017-.2,1.7,1.7,0,0,0,.63-.439,1.84,1.84,0,0,0,.409-.675,3.465,3.465,0,0,0,.189-1.09c.026-.611.032-.8.032-2.373S9.964,4.11,9.938,3.5a3.454,3.454,0,0,0-.189-1.09,1.841,1.841,0,0,0-.409-.676,1.7,1.7,0,0,0-.63-.439,2.859,2.859,0,0,0-1.017-.2C7.116,1.064,6.943,1.058,5.478,1.058ZM5.489,8.9A2.925,2.925,0,0,1,2.674,5.884,2.925,2.925,0,0,1,5.489,2.866,2.925,2.925,0,0,1,8.3,5.884,2.925,2.925,0,0,1,5.489,8.9Zm0-4.976A1.9,1.9,0,0,0,3.662,5.884,1.9,1.9,0,0,0,5.489,7.842,1.9,1.9,0,0,0,7.316,5.884,1.9,1.9,0,0,0,5.489,3.925Zm2.9-.5a.678.678,0,0,1-.652-.7.654.654,0,1,1,1.3,0A.678.678,0,0,1,8.391,3.425Z" transform="translate(10.62 10.199)"/></svg>