<svg xmlns="http://www.w3.org/2000/svg" width="33" height="33" viewBox="0 0 33 33"><defs><style>.a{fill:#fff2d6;}.b{fill:#c68f17;}</style></defs><circle class="a" cx="16.5" cy="16.5" r="16.5"/><g transform="translate(9.051 10.506)"><path class="b" d="M9.663,5.469A3.067,3.067,0,0,0,6.6,8.533a3.007,3.007,0,0,0,.035.3A7.6,7.6,0,0,1,1.442,6.087.284.284,0,0,0,1.2,5.98a.281.281,0,0,0-.224.142,3,3,0,0,0,.2,3.347c-.073-.032-.152-.05-.221-.088a.282.282,0,0,0-.415.247v.035a3.048,3.048,0,0,0,1.333,2.5.218.218,0,0,1-.026,0,.282.282,0,0,0-.318.362,3.07,3.07,0,0,0,2.119,2,5.28,5.28,0,0,1-2.711.751,5.305,5.305,0,0,1-.627-.035.283.283,0,0,0-.185.521,8.149,8.149,0,0,0,4.415,1.3,7.936,7.936,0,0,0,6.093-2.675,8.5,8.5,0,0,0,2.11-5.528c0-.081-.007-.159-.009-.238a5.919,5.919,0,0,0,1.342-1.4.283.283,0,0,0-.353-.415c-.146.065-.316.072-.468.124a3,3,0,0,0,.477-.883.282.282,0,0,0-.415-.327,5.3,5.3,0,0,1-1.581.609A3.042,3.042,0,0,0,9.663,5.469Zm0,.565a2.5,2.5,0,0,1,1.828.795.284.284,0,0,0,.265.079,5.815,5.815,0,0,0,1.06-.318,2.516,2.516,0,0,1-.724.662.283.283,0,0,0,.185.53,5.838,5.838,0,0,0,.8-.221,5.367,5.367,0,0,1-.795.706.282.282,0,0,0-.115.247c0,.115.009.228.009.344a7.949,7.949,0,0,1-1.969,5.148A7.341,7.341,0,0,1,4.542,16.5a7.557,7.557,0,0,1-3.152-.689A5.849,5.849,0,0,0,4.568,14.6a.283.283,0,0,0-.168-.5,2.475,2.475,0,0,1-2.128-1.325h.044a3.082,3.082,0,0,0,.812-.106.283.283,0,0,0-.018-.547,2.481,2.481,0,0,1-1.934-2.04,3,3,0,0,0,.892.185.283.283,0,0,0,.168-.521A2.5,2.5,0,0,1,1.124,7.659a2.455,2.455,0,0,1,.194-.9A8.156,8.156,0,0,0,6.944,9.451a.286.286,0,0,0,.232-.1.282.282,0,0,0,.06-.245,2.523,2.523,0,0,1-.071-.574A2.494,2.494,0,0,1,9.663,6.034Z" transform="translate(0.008 -5.469)"/></g></svg>