<?xml version="1.0" encoding="utf-8"?>
<!-- Generator: Adobe Illustrator 16.0.0, SVG Export Plug-In . SVG Version: 6.00 Build 0)  -->
<!DOCTYPE svg PUBLIC "-//W3C//DTD SVG 1.1//EN" "http://www.w3.org/Graphics/SVG/1.1/DTD/svg11.dtd">
<svg version="1.1" id="Layer_1" xmlns="http://www.w3.org/2000/svg" xmlns:xlink="http://www.w3.org/1999/xlink" x="0px" y="0px"
	 width="1024px" height="1024px" viewBox="0 0 1024 1024" enable-background="new 0 0 1024 1024" xml:space="preserve">
<path fill-rule="evenodd" clip-rule="evenodd" fill="#897FEA" d="M741.906,137.84c29.021,3.703,56.806,11.477,82.861,25.028
	c3.95,2.053,8.075,3.766,12.12,5.635c6.801,0.606,11.423,5.058,16.222,9.196c8.219,7.768,19.067,12.121,26.736,20.602
	c1.191,4.607-1.901,7.834-3.87,11.297c-21.319,37.479-31.508,77.913-32.404,120.858c-0.079,3.753,0.097,7.592-2.337,10.859
	c-16.144,7.289-22.336,19.724-20.475,37.232c0.972,9.131,0.232,18.456,0.23,27.704c0.539,32.317,0.051,64.623,0.265,96.928
	c0.144,21.61,6.934,28.517,28.37,28.604c30.932,0.125,61.866,0.011,92.801,0.055c5.141,0.006,10.322-0.382,15.368,0.959
	c6.966,2.92,3.537,7.849,2.081,12.111c-7.39,21.602-18.901,41.157-30.746,60.487c-10.774,17.586-22.782,34.335-35.956,50.227
	c-2.615,3.153-4.919,6.768-9.751,6.731c-6.08-1.555-9.579-6.52-13.579-10.646c-39.409-40.643-87.145-64.905-143.028-73.588
	c-23.613-3.669-47.137-3.974-70.711-0.151c-4.42,0.717-8.806,1.593-13.265,0.378c-4.8-1.654-5.044-6.08-5.89-10.016
	c-2.461-11.443-6.135-22.522-11.293-32.964c-6.016-12.174-14.347-22.514-27.027-28.533c-2.145-1.127-4.283-2.273-6.549-3.15
	c-4.068-2.167-8.656,0.303-12.783-1.412c-4.44-4.242-7.538-9.038-6.46-15.57c4.1-5.872,11.011-6.698,16.913-9.184
	c72.1-30.375,121.482-82.236,145.916-156.608c18.153-55.258,15.971-110.592-4.125-165.189c-0.477-1.292-1.042-2.553-1.522-3.845
	C724.805,137.903,726.473,135.932,741.906,137.84z"/>
<path fill-rule="evenodd" clip-rule="evenodd" fill="#75A2DF" d="M216.507,851.264c-24.267-9.417-46.716-22.133-67.805-37.325
	c-14.379-6.881-25.313-18.062-36.306-29.155c-1.696-1.71-2.867-3.82-2.726-6.404c0.753-3.996,3.734-6.479,6.329-9.202
	c22.702-23.835,24.695-51.734,5.754-78.66c-4.955-7.049-11.79-11.413-19.425-14.85c-14.993-7.544-31.134-4.935-46.935-5.339
	c-3.638-1.655-4.454-4.947-4.933-8.46c-8.481-62.267,7.186-116.727,52.77-161.188c9.971-9.727,17.906-22.09,32.033-26.967
	c33.917,8.374,62.987,25.725,88.25,49.319c49.604,46.331,73.301,103.798,72.098,171.633c-0.117,6.601-1.165,13.02-2.351,19.451
	c-0.713,3.86-1.89,7.455-6.655,8c-5.789-1.831-5.603-7.352-6.97-11.729c-14.187-45.482-28.061-91.064-42.209-136.56
	c15.895,50.878,30.732,102.088,47.163,152.802c1.058,3.261,1.859,6.632,2.324,10.054c0.095,20.497-9.5,37.929-18.658,55.145
	c-10.708,20.132-24.61,38.186-41.448,53.771C223.885,848.306,221.495,852.217,216.507,851.264z"/>
<path fill-rule="evenodd" clip-rule="evenodd" fill="#8488E7" d="M652.604,133.927c11.028,0.042,22.058,0.084,33.084,0.129
	c4.82,2.003,7.075,6.197,9.346,10.537c40.654,77.723,29.561,174.564-27.522,241.827c-19.633,23.134-42.553,41.953-69.802,55.385
	c-3.835,1.89-7.677,5.006-12.251,1.506c-1.57-9.018,0.883-18.003,0.192-27.011c0.562-10.854-1.236-21.301-6.181-31.003
	c-5.654-11.092-14.908-17.729-26.957-20.606c-4.224-1.009-9.188-0.687-11.238-5.914c-2.922-4.535-3.53-9.577-3.563-14.821
	c-0.352-57.059,0.812-114.127-0.702-171.176c-0.198-7.425,6.604-10.09,8.112-15.98c8.703-3.651,18.622-3.477,26.872-8.551
	c4.794-4.194,10.488-4.978,16.552-4.368c19.843-4.576,39.98-7.36,60.168-9.828C649.975,132.867,651.266,132.653,652.604,133.927z"/>
<path fill-rule="evenodd" clip-rule="evenodd" fill="#8782E9" d="M814.068,733.493c-37.567,30.743-76.351,59.714-119.18,82.927
	c-48.557,26.314-99.473,46.265-153.543,57.907c-1.644,0.964-3.711,1.139-4.777-0.189c-4.862-6.054-11.574-4.957-18.052-5.311
	c-5.258-0.287-11.203,1.595-15.167-3.897c3.335-5.831,9.104-3.842,13.886-3.862c20.325-0.089,40.473-0.212,60.534-5.108
	c31.945-7.797,55.196-24.251,63.487-57.661c4.807-7.325,7.855-15.412,7.93-24.089c0.242-28.35,2.124-56.782-3.136-84.94
	c-3.737-22.001-2.888-44.196-2.855-66.355c0.005-4.083-0.129-8.208,1.531-12.085c6.425-7.134,15.535-4.848,23.245-5.524
	c57.354-5.032,109.909,8.176,156.149,43.466c5.439,4.151,11.1,8.309,12.677,15.673c-3.023,22.854-11.508,44.146-19.029,65.711
	C817.204,731.773,815.748,732.871,814.068,733.493z"/>
<path fill-rule="evenodd" clip-rule="evenodd" fill="#7E90E5" d="M545.123,156.799c-7.919,14.185-3.858,29.573-4.01,44.396
	c-0.467,45.638-0.184,91.284-0.155,136.929c0.004,7.182-0.535,14.415,1.409,21.476c-7.257,3.651-15.255,3.55-23.035,4.519
	c-16.198,2.017-30.738,7.317-41.82,20.087c-6.353,7.32-10.613,15.645-10.15,25.285c0.563,11.722-1.872,21.68-11.08,29.634
	c-2.693,2.326-4.891,5.587-5.309,9.678c5.412,1.835,10.662-2.754,15.409,0.898c2.049,4.479-0.606,7.213-3.618,9.824
	c-11.326,3.082-21.909-1.026-32.096-4.539c-40.463-13.947-75.624-36.005-102.35-70.115c-2.839-3.625-8.424-7.251-2.607-12.887
	c13.399-2.916,27.15,0.741,40.53-2.239c20.545-5,30.629-17.625,31.243-38.635c0.471-16.019-1.333-32.082,0.971-48.06
	c10.621-12.245,21.634-24.176,31.776-36.806c15.631-19.471,32.651-37.436,52.655-52.465c3.812-4.917,8.077-9.199,14.552-10.383
	c7.659-4.575,15.318-9.151,22.976-13.727c3.504-4.893,8.073-7.62,14.276-7.031C539.258,162.638,542.051,159.466,545.123,156.799z"/>
<path fill-rule="evenodd" clip-rule="evenodd" fill="#63C7DA" d="M367.364,371.748c-10.51,4.416-21.504,0.979-32.23,1.953
	c-3.729,0.337-7.512,0.101-11.271,0.127c-7.376,5.405-15.875,2.532-23.881,3.125c-4.42,0.329-8.903,0.311-13.351-0.042
	c-8.901-0.41-17.797,0.454-26.698,0.111c-4.452-0.174-8.975-0.014-12.596-3.315c-48.473-0.111-96.946-0.23-145.419-0.321
	c-7.556-0.014-15.045-0.256-22.583-1.294c-19.754-2.714-33.347-18.944-32.378-38.579c0.557-11.319,0.164-22.686,0.173-34.032
	c0.024-24.891,8.893-36.746,32.762-43.756c3.744-1.9,7.689-2.744,11.908-2.742c61.777,0.004,123.553-0.055,185.331,0.054
	c2.401,0.004,4.808,0.085,7.098,0.885c5.989,5.595,0.25,7.845-3.382,8.83c-8.592,2.33-9.186,6.794-6.561,14.391
	c2.974,8.598-0.895,13.482-10.248,14.436c-8.095,0.824-16.38-0.786-24.352,1.843c-12.366,2.157-25.105-0.893-38.874,2.376
	c4.891,3.259,9.004,2.377,12.842,2.385c42.177,0.075,84.354,0.024,126.532,0.073c5.113,0.006,10.318-0.549,15.217,1.551
	c3.966,5.291-1.052,5.397-3.832,5.945c-5.743,1.135-11.716,1.131-17.448,0.446c-14.993-1.787-28.253,3.223-41.428,9.506
	c-0.444,5.444,12.604,3.554,6.857,12.095c-4.588,2.023-9.454,1.609-14.244,1.621c-24.069,0.057-48.136,0.002-72.205,0.042
	c-3.751,0.006-7.558-0.287-12.491,1.526c4.695,3.207,9.121,2.264,13.186,2.272c40.915,0.084,81.831,0.022,122.746,0.081
	c5.115,0.006,10.361-0.596,15.168,1.944c-0.79,5.367-0.793,6.034-6.789,6.003c-10.92-0.057-20.729,4.354-31.072,6.558
	c-5.682,1.211-9.208,3.437-8.236,10.411c0.969,6.96,3.811,10.454,11.126,10.411c12.683-0.077,25.367-0.135,38.05,0.061
	C359.152,368.798,363.818,368.071,367.364,371.748z"/>
<path fill-rule="evenodd" clip-rule="evenodd" fill="#F587BC" d="M818.113,404.766c-0.069-12.37-0.24-24.739-0.183-37.107
	c0.071-14.926,7.585-23.728,22.812-27.062c11.36-6.161,23.61-1.983,35.411-3.077c28.533-0.361,57.066-0.109,85.601-0.141
	c4.528-0.006,8.942,0.399,12.785,3.154c6.393,0.412,13.05-0.155,19.116,1.472c8.521,2.286,15.024,7.709,16.706,17.212
	c1.699,2.877,0.903,6.041,0.909,9.066c0.059,37.759,0.068,75.521,0.017,113.28c-0.013,9.454-0.875,10.268-9.091,6.173
	c-15.031-7.493-31.5-11.899-45.594-21.319c-1.282-1.103-2.466-2.34-3.548-3.675c-8.65-10.649-8.323-14.459,2.062-24.026
	c5.472-5.044,5.108-6.995-1.844-9.844c-11.899-4.874-12.198-5.264-11.34-18.97c0.359-5.721-1.358-7.875-7.14-5.258
	c-12.932,5.858-13.787,5.638-22.545-4.222c-5.104-5.747-6.657-5.417-9.137,1.947c-3.635,10.785-6.574,13.183-17.971,11.966
	c-6.882-0.735-9.361,2.393-10.441,8.192c-3.247,4.151-7.455,3.33-11.209,1.492C848.704,416.78,833.618,410.289,818.113,404.766z"/>
<path fill-rule="evenodd" clip-rule="evenodd" fill="#F186C5" d="M818.113,404.766c16.32-0.591,28.876,9.372,42.896,15.251
	c4.111,1.724,8.14,6.134,12.891,1.112c8.917,3.459,11.338,12.136,5.25,18.969c-1.609,1.809-3.841,2.877-5.704,4.381
	c-4.07,3.288-4.255,6.771,1.114,8.089c11.015,2.708,15.345,8.741,13.374,20.218c-1.174,6.823,2.65,7.406,8.133,4.295
	c10.016-5.688,13.464-4.901,20.851,4.008c1.734,2.092,3.026,4.988,6.306,4.489c3.556-0.543,3.247-3.861,3.928-6.445
	c2.532-9.627,6.776-13.171,16.049-11.243c6.211,1.292,9.785-1.072,13.262-5.196c8.76,7.615,20.238,9.743,30.226,14.898
	c7.253,3.746,14.916,6.7,23.675,10.575c0-43.28,0-86.115,0-128.949c3.133,3.562,1.798,7.893,1.806,11.875
	c0.105,43.659-0.196,87.32,0.255,130.976c0.117,11.307-2.044,20.998-10.369,28.889c-1.809,2.986-4.144,5.693-7.688,6.057
	c-11.297,1.159-22.697,3.353-33.736-1.542c-38.135-0.111-76.27-0.212-114.404-0.342c-19.25-0.064-28.281-9.031-28.287-28.331
	C817.927,472.789,818.048,438.777,818.113,404.766z"/>
<path fill-rule="evenodd" clip-rule="evenodd" fill="#9591EC" d="M586.533,444.072c68.175-31.663,110.109-84.52,125.861-157.751
	c10.647-49.505,2.625-96.791-20.367-141.678c-1.872-3.653-4.214-7.065-6.339-10.589c9.648-0.05,19.296-0.103,28.944-0.155
	c2.026-1.428,4.029-1.793,5.982,0.133c6.466,4.79,14.91-1.484,21.288,3.81c-14.627,0.551-14.463,0.485-8.8,14.458
	c16.635,41.032,20.132,83.614,14.836,127.243c-5.348,44.047-22.464,83.537-49.007,118.435
	c-29.01,38.143-66.29,66.296-111.484,83.367c-4.731,1.787-9.804,3.019-13.702,6.597c-5.605-1.527-6.447-6.023-6.776-10.848
	C574.505,466.695,577.465,453.572,586.533,444.072z"/>
<path fill-rule="evenodd" clip-rule="evenodd" fill="#E8F1F8" d="M247.336,373.707c13.177,0,26.353,0.002,39.53,0.002
	c0.652,3.16-1.944,4.287-3.691,5.955c-37.012,25.097-76.193,46.791-113.096,72.063c-11.954,7.082-21.526,17.707-34.512,23.257
	c-41.121,31.649-72.451,69.85-81.721,122.685c-4.182,23.841-4.002,47.678,0.917,71.428c-7.08,6.765-14.797,12.513-24.358,15.336
	c-11.958-24.394-11.733-50.121-9.149-76.364c1.779-18.064,3.948-35.757,9.24-53.357c12.75-42.404,39.922-73.669,73.823-100.05
	c34.635-26.953,75.191-43.207,114.279-62.071c7.346-3.545,14.817-6.835,22.155-10.396
	C244.257,380.493,247.165,378.102,247.336,373.707z"/>
<path fill-rule="evenodd" clip-rule="evenodd" fill="#59C5E2" d="M241.115,291.272c6.552-4.687,13.959-1.72,20.945-2.17
	c10.952-0.707,12.852-2.997,8.834-12.986c-3.122-7.764-5.179-14.469,7.14-15.114c3.138-0.166,6.946-1.11,8.6-4.854
	c2.445-3.065,5.965-3.053,9.359-3.08c20.132-0.159,40.263-0.066,60.395-0.077c3.875-0.002,7.395,1.018,10.815,2.658
	c15.942,2.829,25.812,12.583,31.251,27.398c3.203,20.648,3.994,41.529-0.279,61.881c-3.489,16.626-15.621,25.609-30.813,26.819
	c-17.874-0.018-35.75-0.081-53.624-0.032c-5.486,0.016-11.314-0.083-10.379-7.628c0.806-6.502-8.178-16.055,6.655-18.813
	c14.27-2.653,28.239-6.993,42.791-8.352c1.983-6.601-2.003-7.671-7.134-7.729c-10.664-0.125-21.329,0.091-31.988-0.117
	c-4.357-0.087-9.07,0.802-12.582-3.019c-1.541-3.834-5.416-3.814-8.485-5.086c-2.785-1.155-6.647-1.468-6.587-5.405
	c0.069-4.505,4.542-2.714,6.872-4.037c18.803-10.662,39.351-7.645,59.472-8.149c1.537-0.039,3.047-1.216,4.57-1.862
	c-3.483-7.265-10.146-7.255-16.753-7.269c-28.112-0.059-56.223,0.044-84.334-0.077C250.815,294.151,245.469,295.064,241.115,291.272
	z"/>
<path fill-rule="evenodd" clip-rule="evenodd" fill="#F59F39" d="M888.607,801.751c0.63,5.638,4.915,10.013,4.586,16.303
	c-0.251,4.786,4.993,5.587,9.169,6.356c10.205,1.88,20.142,4.743,28.657,10.918c9.29,6.736,9.266,14.084-0.096,20.639
	c-9.791,6.855-21.207,9.729-32.715,12.028c-41.806,8.357-83.527,6.948-124.983-2.163c-8.527-1.873-16.878-5.534-23.778-11.317
	c-7.277-6.096-7.202-11.968,0.158-18.011c6.506-5.341,14.192-9.225,22.37-10.046c14.25-1.434,20.005-9.494,20.951-22.619
	c-1.175-7.641,4.287-5.535,7.797-4.818c9.095,1.856,18.146,3.435,27.461,4.134c17.288,1.298,34.233,0.01,51.103-3.788
	C882.487,798.644,886.801,795.998,888.607,801.751z"/>
<path fill-rule="evenodd" clip-rule="evenodd" fill="#7B99E2" d="M503.724,864.137c4.604,3.327,9.87,1.627,14.789,1.631
	c8.804,0.006,17.716-1.016,22.829,8.558c-21.556,6.897-43.924,9.482-66.25,11.98c-26.854,3.002-53.826,4.513-80.872,4.231
	c-0.63,0.936-1.248,0.974-1.854-0.023c-12.333-3.381-25.131-2.28-37.67-3.409c-23.069-2.075-45.529-6.887-67.902-12.189
	c-10.494-2.487-21.446-3.786-31.264-8.824c-4.531-3.546-1.866-6.772,0.814-9.428c15.956-15.806,28.044-34.381,39.094-53.747
	c1.67-2.926,3.608-5.955,7.706-5.977c8.797,5.072,14.581,13.876,23.463,18.901c2.11,1.193,2.854,3.673,2.179,6.26
	c-0.947,2.619-2.912,4.656-4.075,7.14c-4.856,10.362-1.539,20.002,8.677,24.968c6.581,3.198,13.583,4.367,20.909,4.717
	c23.536,1.118,46.549-1.791,69.188-8.155c16.073-0.083,31.373,5.451,47.3,6.449c7.869,1.776,16.006,1.629,23.883,3.355
	C497.888,861.279,501.454,861.039,503.724,864.137z"/>
<path fill-rule="evenodd" clip-rule="evenodd" fill="#E8F1F8" d="M960.629,535.474c13.761-1.927,28.293,3.206,41.424-4.515
	c1.167,12.082-5.515,21.906-10.158,31.981c-12.614,27.373-25.764,54.703-44.521,78.455c-9.688,12.267-18.817,25.131-30.488,35.934
	c-14.821,13.717-28.703,28.446-43.012,42.719c-2.404,2.398-4.527,5.322-8.48,5.26c-8.602-8.053-8.993-19.322-11.657-29.705
	c0.945-5.345,4.398-9.211,8.236-12.513c7.922-6.813,13.222-16.319,22.494-21.702C917.01,623.745,943.661,582.537,960.629,535.474z"
	/>
<path fill-rule="evenodd" clip-rule="evenodd" fill="#8E76EB" d="M974.539,340.533c-32.885,0.02-65.77,0.042-98.654,0.064
	c-4.471-2.227-4.879-6.352-4.614-10.544c2.122-33.757,8.582-66.464,24.255-96.809c2.383-4.61,3.978-10.625,11.156-10.262
	C939.706,256.16,961.172,296.007,974.539,340.533z"/>
<path fill-rule="evenodd" clip-rule="evenodd" fill="#EC85CC" d="M104.556,673.906c33.935,15.396,43.617,64.942,18.058,92.623
	c-3.954,4.281-8.156,8.33-12.245,12.487c-2.659,4.654-7.76,4.573-11.99,6.181c-25.856,7.552-49.205,4.813-68.011-16.571
	c4.202-13.28,14.633-21.972,23.441-31.861c2.189-1.783,3.435-4.331,5.171-6.49c2.746-2.59,4.753-5.734,6.906-8.795
	c2.332-3.317,4.781-6.918,9.876-5.053c3.574,9.947-4.974,16.412-6.918,24.675c5.371-8.289,8.247-17.912,12.691-26.78
	c1.345-2.686,1.716-5.176-0.17-7.718C86.254,693.688,92.198,681.521,104.556,673.906z"/>
<path fill-rule="evenodd" clip-rule="evenodd" fill="#F5B63B" d="M855.66,693.806c3.245,10.5,6.489,21,9.734,31.502
	c2.973,14.143,7.61,27.778,12.567,41.319c2.226,4.274-1.003,5.946-3.909,6.554c-22.029,4.614-44.091,5.658-66.063-0.482
	c-1.012-0.282-1.595-1.264-2.281-2.023c-1.997-8.902,3.786-16.151,5.213-24.335c0.756-4.333,2.078-8.567,3.146-12.847
	c7.928-22.312,14.901-44.915,20.641-67.892c1.464-3.792-0.006-9.721,6.559-9.886c5.373-0.136,6.578,4.472,7.731,8.303
	C851.937,673.773,857.003,683.088,855.66,693.806z"/>
<path fill-rule="evenodd" clip-rule="evenodd" fill="#9A8AED" d="M906.682,222.982c-10.403,8.093-13.17,20.628-17.46,31.887
	c-7.657,20.104-13.2,40.877-13.396,62.723c-0.071,7.671-4.541,15.335,0.059,23.004c-11.714,0-23.428,0-35.141,0
	c-0.675-51.199,10.888-99.036,39.104-142.295C890.312,204.874,898.892,213.498,906.682,222.982z"/>
<path fill-rule="evenodd" clip-rule="evenodd" fill="#F584BA" d="M55.019,737.96c-8.216,10.224-16.434,20.444-24.65,30.668
	c-22.441-23.421-22.399-58.142,0.036-84.199c7.524-6.056,15.15-11.95,24.36-15.33c17.066-3.267,33.844-3.535,49.792,4.808
	c-8.937,9.832-15.031,21.654-22.668,32.395c-0.103,4.654-1.555,8.543-6.06,10.706c-5.183,0.228-7.328,4.016-9.246,7.987
	c-1.64,3.398-3.37,6.602-7.816,6.672c-4.85,2.286-9.161,0.577-11.415-3.455c-2.746-4.912,3.574-5.409,5.49-8.357
	c-2.382-0.117-4.218,1.167-6.065,2.177c-5.428,2.969-4.677,5.868,0.169,8.792C50.049,732.693,54.08,733.608,55.019,737.96z"/>
<path fill-rule="evenodd" clip-rule="evenodd" fill="#88A8E5" d="M303.024,797.646c-10.333,11.859-16.424,26.549-26.202,38.884
	c-5.759,7.266-11.392,14.519-18.019,20.994c-2.391,2.336-5.646,4.39-3.273,8.567c-13.714-3.081-26.785-7.858-39.023-14.827
	c32.16-27.756,54.882-61.63,66.848-102.58c1.097-3.753,1.018-7.433,1.276-11.172c18.615,2.649,37.507-0.588,56.083,2.613
	c3.083,1.93,2.371,3.751-0.359,5.188c-3.34,1.757-7.12,2.363-10.615,3.769c-18.563,7.459-26.644,19.978-25.62,39.774
	C304.276,791.837,305.538,794.986,303.024,797.646z"/>
<path fill-rule="evenodd" clip-rule="evenodd" fill="#FDFDFD" d="M805.709,770.675c21.769,3.312,43.546,5.024,65.363,0.372
	c2.861-0.61,6.541,0.089,6.89-4.42c12.225,5.252,9.341,18.052,13.539,27.302c1.411,3.109,2.197,6.754-2.894,7.822
	c-1.272-1.524-2.754-1.549-4.582-0.993c-28.331,8.607-56.781,7.963-85.217,0.688c-3.095-0.792-5.171-1.553-5.882,2.393
	c-1.716-0.342-4.038-1.014-3.426-2.918C793.044,789.878,797.947,779.491,805.709,770.675z"/>
<path fill-rule="evenodd" clip-rule="evenodd" fill="#FDFDFD" d="M81.963,253.81c0.939-1.955,2.431-3.996,4.511-3.756
	c13.629,1.567,27.047-4.505,40.766-0.868c3.558,0.943,7.514,0.499,11.286,0.501c71.845,0.022,143.689-0.03,215.534,0.146
	c3.827,0.008,9.404-2.852,11.08,3.97c-2.853,1.811-6.036,1-9.06,1.001c-88.351,0.046-176.701,0.046-265.052,0
	C88,254.803,84.82,255.607,81.963,253.81z"/>
<path fill-rule="evenodd" clip-rule="evenodd" fill="#E8F1F8" d="M81.963,253.81c94.392-0.002,188.784-0.004,283.176-0.006
	c0.687,0.616,1.375,1.231,2.063,1.846c-26.857,0.166-53.713,0.331-80.568,0.497c-61.333-0.095-122.669-0.188-184.002-0.293
	c-7.58-0.012-15.16-0.083-22.741-0.129C80.582,255.086,81.272,254.448,81.963,253.81z"/>
<path fill-rule="evenodd" clip-rule="evenodd" fill="#E8F1F8" d="M98.379,785.197c3.529-2.971,7.592-4.906,11.994-6.181
	c10.999,13.587,25.652,23.168,38.325,34.924c-13.007,1.081-18.57-11.295-28.511-15.828
	C112.491,794.604,106.741,787.677,98.379,785.197z"/>
<path fill-rule="evenodd" clip-rule="evenodd" fill="#FDFDFD" d="M695.926,131.201c-8.991,0-17.98,0-26.972,0
	c9.003-4.705,18.075-3.346,27.134-2.962C696.033,129.227,695.979,130.214,695.926,131.201z"/>
<path fill-rule="evenodd" clip-rule="evenodd" fill="#FDFDFD" d="M392.366,890.514c0.62-0.147,1.238-0.14,1.854,0.023
	c-5.553,7.336-12.244,6.84-20.688,2.755C380.053,888.812,386.557,891.808,392.366,890.514z"/>
<path fill-rule="evenodd" clip-rule="evenodd" fill="#FDFDFD" d="M534.692,162.638c-4.76,2.342-9.519,4.685-14.276,7.029
	C523.617,160.284,528.805,157.729,534.692,162.638z"/>
<path fill-rule="evenodd" clip-rule="evenodd" fill="#FDFDFD" d="M497.44,183.396c-4.85,3.461-9.703,6.922-14.552,10.383
	C484.305,186.623,490.785,181.999,497.44,183.396z"/>
<path fill-rule="evenodd" clip-rule="evenodd" fill="#FDFDFD" d="M588.547,143.88c-5.519,1.456-11.035,2.912-16.554,4.368
	c3.229-8.951,12.105-5.105,18.165-7.572C591.119,140.284,588.589,142.507,588.547,143.88z"/>
<path fill-rule="evenodd" clip-rule="evenodd" fill="#FDFDFD" d="M853.109,177.7c-5.407-3.063-10.816-6.128-16.224-9.194
	C845.737,165.493,849.098,172.173,853.109,177.7z"/>
<path fill-rule="evenodd" clip-rule="evenodd" fill="#FDFDFD" d="M720.615,134.032c-1.995-0.044-3.988-0.089-5.982-0.131
	c3.289-5.935,8.28-4.087,13.425-3.388C726.889,135.615,722.992,133.017,720.615,134.032z"/>
<path fill-rule="evenodd" clip-rule="evenodd" fill="#FDFDFD" d="M652.604,133.927c-1.299,0.04-2.595,0.083-3.892,0.125
	c-2.438-0.5-5.244,0.416-9.303-3.481C645.571,130.363,649.931,126.761,652.604,133.927z"/>
<path fill-rule="evenodd" clip-rule="evenodd" fill="#F1F1F1" d="M646.296,609.457c0.565,26.902-0.401,53.853,2.445,80.686
	c-2.78,1.04-4.442-1.116-6.466-2.253c-12.43-6.98-16.949-4.808-19.705,9.399c-2.712,13.979-3.113,27.96-0.987,42.093
	c2.417,16.053-4.006,29.658-12.868,42.358c-1.991,2.854-4.849,4.889-8.527,5.327c-1.095,0.089-2.179-0.011-3.247-0.253
	c-27.319-13.082-55.146-24.983-83.651-35.283c-2.93-1.061-5.813-2.275-7.136-5.479c-2.072-6.894-0.196-13.528,1.234-20.238
	c1.338-6.292,3.713-12.652,0.042-18.988c-0.077-1.061,0.053-2.517,0.911-2.757c19.811-5.528,28.715-25.821,46.551-34.231
	c7.501-3.54,12.931-10.557,16.361-18.129c6.967-15.38,19.553-26.443,29.216-39.728c1.622-2.229,3.58-4.757,6.235-5.204
	c11.572-1.944,11.984-10.786,12.113-19.438c0.368-24.509-4.401-47.795-17.165-69.117c-2.506-4.187-6.784-8.354-2.845-13.996
	c19.089,8.343,28.18,24.935,34.78,43.179c3.435,9.494,5.437,19.507,8.083,29.286C648.249,586.902,648.192,598.051,646.296,609.457z"
	/>
<path fill-rule="evenodd" clip-rule="evenodd" fill="#FBFBFB" d="M598.807,504.226c-0.234,4.793,2.606,8.25,4.817,12.154
	c14.753,26.07,21.755,53.719,15.877,83.719c-0.915,4.664-2.073,7.872-8.955,7.877c-8.41,0.008-10.788,9.727-15.584,15.176
	c-8.283,9.42-16.646,18.878-21.858,30.812c-3.393,7.768-10.06,13.468-17.146,18.706c-9.953,7.35-21.729,12.263-28.154,24.588
	c-3.243,6.221-13.22,5.929-19.984,8.974c-5.478,6.021-10.599,4.713-15.536-0.733c-5.9-8.384-7.542-18.496-11.245-27.782
	c-4.107-16.418,7.782-24.077,18.995-28.883c16.628-7.126,23.727-20.069,28.031-35.644c5.929-21.464,11.958-42.995,11.925-65.556
	c-0.01-7.489,4.516-12.596,9.842-15.968c13.093-8.291,25.687-17.052,36.729-27.986c1.609-1.593,3.822-2.994,6.492-1.982
	C594.97,502.54,596.888,503.384,598.807,504.226z"/>
<path fill-rule="evenodd" clip-rule="evenodd" fill="#978FEC" d="M646.296,609.457c-1.54-10.922-3.079-21.846-4.622-32.766
	c17.047-0.889,33.804-5.108,50.993-4.438c58.45,2.281,111.293,19.489,157.053,57.135c12.238,10.07,21.995,22.621,34.744,31.997
	c-8.138,12.108-19.376,21.462-28.804,32.424c-2.906-9.103-5.583-18.284-8.83-27.261c-1.258-3.478-0.309-9.297-5.987-9.394
	c-5.025-0.087-3.342,6.104-6.134,8.444c-3.346-10.865-13.198-15.395-21.426-21.115c-43.203-30.037-91.721-40.355-143.502-36.737
	C661.979,608.29,654.175,609.476,646.296,609.457z"/>
<path fill-rule="evenodd" clip-rule="evenodd" fill="#F1F1F1" d="M593.052,501.696c-13.733,14.905-31.835,24.339-46.993,37.464
	c-3.152,2.73-3.116,5.793-3.387,9.8c-2.013,29.781-7.365,58.88-20.698,85.979c-3.338,6.787-8.695,11.404-15.977,13.473
	c-8.642,2.453-14.219,9.354-20.858,14.54c-4.42,3.453-1.443,9.745-2.078,14.729c-3.447,0.844-3.768-2.135-4.81-4.065
	c-1.01-1.865-1.585-3.246-4.499-2.61c-12.727,2.772-12.759,2.623-16.913-9.091c0.189-4.751,3.394-7.346,7.039-9.421
	c5.959-3.393,11.893-7.51,18.49-8.851c12.592-2.559,18.201-11.285,22.26-21.921c9.799-25.672,16.733-52.198,23.267-78.84
	c1.494-6.09,3.257-12,9.46-15.142c12.039-5.272,23.009-12.302,33.433-20.277c2.958-2.262,5.678-5.09,9.653-5.694
	C584.636,500.121,588.827,498.261,593.052,501.696z"/>
<path fill-rule="evenodd" clip-rule="evenodd" fill="#FCC0C5" d="M580.441,501.769c-11.768,12.077-25.354,21.397-41.254,27.207
	c-4.168-2.738-5.933-6.508-4.93-11.474c19.496-17.161,18.773-40.824,20.38-63.7c0.386-5.472-0.309-11.091,2.387-16.172
	c2.771-5.217,6.653-9.308,13.107-7.451c6.196,1.783,8.081,7.057,7.931,13.004c-0.112,4.553-1.572,8.957-3.989,12.687
	c-4.267,6.581-6.191,13.63-6.08,21.357c1.918,3.57,3.837,7.138,5.755,10.709C575.977,492.549,578.21,497.159,580.441,501.769z"/>
<path fill-rule="evenodd" clip-rule="evenodd" fill="#87A7E5" d="M135.567,474.984c9.959-9.716,21.561-17.254,33.083-24.895
	c17.565,2.803,31.93,12.675,45.994,22.296c64.576,44.178,102.529,105.195,113.362,182.822c1.43,10.251,0.42,20.628,0.58,30.946
	c0.081,5.165-0.176,10.349,1.92,15.243c1.02,3.896-1.278,6.641-3.811,8.765c-3.703,3.104-1.605,5.794-0.119,8.722
	c1.644,7.198,7.295,7.214,12.907,7.255c32.521,0.236,65.043,0.354,97.564,0.048c7.187-0.068,14.419-0.528,21.549,0.382
	c3.148,0.402,8.091-0.405,7.568,5.539c-3.519,2.771-7.725,2.659-11.82,2.667c-51.155,0.087-102.312,0.192-153.466-0.051
	c-13.018-0.063-15.764-2.879-14.894-13.318c8.087-5.26,6.185-14.308,6.492-21.365c3.085-70.937-21.625-130.788-74.349-178.42
	c-20.972-18.946-45.039-33.381-72.177-42.209C142.386,478.251,139.024,476.476,135.567,474.984z"/>
<path fill-rule="evenodd" clip-rule="evenodd" fill="#F8F8F8" d="M285.984,721.404c0.634,7.699,4.709,9.927,12.396,9.9
	c56.037-0.191,112.076,0.087,168.114,0.216c4.283,6.988,2.181,11.633-6.518,12.697c-9.521,1.165-19.161,0.294-28.746,0.498
	c-7.653,0.065-15.31-0.254-22.96,0.253c-19.415-0.041-38.828-0.312-58.246-0.35c-2.72-0.104-5.252-0.656-7.047-2.956
	c-15.407-0.026-30.815-0.161-46.22-0.012c-4.661,0.044-8.854-0.489-12.125-4.138c-16.156-52.853-32.31-105.703-48.467-158.555
	c-0.604-1.971-1.264-3.923-1.844-5.9c-0.642-2.198-2.498-5.175,0.515-6.295c4.097-1.523,3.976,2.643,4.701,4.987
	c6.754,21.852,13.337,43.756,20.12,65.602C268.36,665.392,277.203,693.39,285.984,721.404z"/>
<path fill-rule="evenodd" clip-rule="evenodd" fill="#F5AE3B" d="M466.59,449.235c-4.319,0.998-8.604,2.463-12.973,2.805
	c-2.369,0.184-4.951,4.279-7.071,0.477c-1.479-2.649,0.206-5.729,2.029-7.57c12.034-12.156,15.79-26.615,17.67-43.629
	c2.435-22.029,23.326-36.131,51.526-39.734c8.151-1.042,16.4-1.345,24.6-1.985c4.631,1.088,9.343,1.914,13.881,3.308
	c21.787,6.689,32.985,25.226,31.853,52.425c-4.77,5.749-11.896,6.063-18.345,7.76c-7.542,1.985-14.96,4.375-22.479,6.421
	c-16.875,4.804-33.818,9.367-50.719,14.066c-2.417,0.729-4.87,1.351-7.281,2.11c-5.684,1.139-11.413,2.096-17.006,3.681
	C470.368,449.865,468.46,450.202,466.59,449.235z"/>
<path fill-rule="evenodd" clip-rule="evenodd" fill="#014368" d="M546.191,427.732c13.48-5.797,28.001-8.077,41.915-12.402
	c1.49,9.692-0.111,19.212-1.573,28.741c-5.148,11.629-8.904,24.037-18.542,33.156c-4.271-6.777-4.771-12.713,1.628-19.114
	c4.314-4.315,6.013-10.736,5.994-17.086c-0.012-4.501-1.899-8.089-6.805-8.905c-4.678-0.779-8.216,1.204-9.609,5.71
	c-1.094,3.538-1.664,7.308-1.944,11.015c-0.878,11.599-1.252,23.237-2.3,34.817c-1.328,14.678-7.142,27.019-20.024,35.233
	c-10.629,10.014-23.651,11.13-36.205,6.657c-12.909-4.602-14.227-17.074-14.385-29.119c0.01-3.352-0.03-6.718,1.108-9.943
	c8.927-10.031,17.515-12.034,29.6-6.905c7.539,3.198,21.292-5.751,24.683-16.507c2.054-6.516,3.495-13.256,2.039-20.202
	c-0.129-0.981-0.117-1.964-0.012-2.946C542.819,435.72,543.888,431.5,546.191,427.732z"/>
<path fill-rule="evenodd" clip-rule="evenodd" fill="#FD8572" d="M596.827,784.787c0.739,0.125,1.477,0.251,2.214,0.376
	c14.956,3.604,29.04,9.734,43.429,14.979c-4.149,27.554-22.074,43.364-46.347,53.085c-22.642,9.066-46.527,11.457-70.77,10.95
	c-7.207-0.149-14.419-0.034-21.63-0.04c-11.003-1.594-22.296-0.998-33.059-4.398c-2.684-5.239,1.872-6.582,4.826-8.337
	c8.402-4.989,17.84-6.993,27.285-9.01c30.842-6.585,58.703-19.031,81.724-41.274C589.546,796.24,592.474,790.037,596.827,784.787z"
	/>
<path fill-rule="evenodd" clip-rule="evenodd" fill="#F1F1F1" d="M642.47,800.142c-16.319,0.352-29.414-8.648-43.429-14.977
	c12.511-5.894,23.281-30.298,19.934-45.983c-3.364-15.764-1.759-31.364,1.653-46.743c2.977-13.415,12.04-16.044,23.245-7.465
	c1.854,1.42,3.255,3.431,4.866,5.169c3.372,11.96,3.97,24.241,3.894,36.544c-0.126,19.89,2.045,39.888-2.25,59.605
	C649.214,791.652,647.881,797.115,642.47,800.142z"/>
<path fill-rule="evenodd" clip-rule="evenodd" fill="#8AA4E6" d="M487.673,485.914c-0.258,3.269-0.517,6.536-0.775,9.805
	c-5.486,4.384-11.978,3.1-17.902,2.31c-56.626-7.554-106.39-29.676-147.523-70.042c-12.824-12.586-24.909-25.727-34.805-40.78
	c-1.876-2.854-4.42-5.383-4.03-9.216c1.407-1.428,2.817-2.855,4.226-4.283c12.335,0.038,24.669,0.079,37,0.117
	c15.675,24.994,37.753,43.233,62.735,57.994c23.399,13.828,47.971,25.008,75.753,26.742c2.104,1.524,2.348,3.966,3.1,6.181
	c4.585,13.517,4.598,13.512,18.029,12.22C485.615,479.6,486.641,482.758,487.673,485.914z"/>
<path fill-rule="evenodd" clip-rule="evenodd" fill="#315E83" d="M482.803,477.094c-8.853,6.486-12.493,5.707-17.095-3.788
	c-2.25-4.638-3.308-9.587-3.358-14.745c1.412-3.104,2.821-6.207,4.236-9.318c1.209-0.448,2.415-0.887,3.621-1.327
	c1.24-0.563,2.713-1.101,3.828-0.392c6.647,4.222,11.376,1.884,15.154-4.146c1.933-0.46,3.863-0.923,5.795-1.385
	c0.59-0.446,1.452-0.88,1.819-0.519c10.776,10.593,21.757,4.046,32.833,0.652c4.309-1.321,8.567-4.674,13.488-1.692
	c0.137,0.612,0.104,1.212-0.098,1.805c-2.266,7.423-9.73,6.51-14.926,8.782c-9.517,4.166-20.083,5.419-21.598,19.564
	c-0.783,7.338-10.191,8.172-16.594,2.635c-3.146-2.72-4.446-6.922-7.735-9.502c-0.606-0.305-1.135-0.806-1.755-1.02
	c-3.469-1.191-5.024-8.337-9.686-4.432c-3.344,2.798-1.375,7.632,0.131,11.501c2.005,5.149,5.47,5.311,9.781,2.934
	c0.893-0.491,1.973-0.182,2.872,0.406C484.194,474.603,484.101,475.955,482.803,477.094z"/>
<path fill-rule="evenodd" clip-rule="evenodd" fill="#F9FCFD" d="M301.102,326.057c16.394,0.111,32.788,0.226,49.182,0.331
	c3.108,0.02,6.613-0.194,7.742,3.447c1.319,4.252-1.367,6.27-5.22,7.087c-47.09-0.111-94.18-0.222-141.272-0.333
	c-2.75-0.006-5.5,0.046-8.25-0.018c-4.069-0.097-9.236,0.62-8.913-5.525c0.276-5.272,5.054-4.644,8.777-4.646
	c30.252-0.022,60.503,0.006,90.755-0.008C296.304,326.39,298.703,326.174,301.102,326.057z"/>
<path fill-rule="evenodd" clip-rule="evenodd" fill="#F7FBFC" d="M241.115,291.272c35.362,0.099,70.725,0.16,106.085,0.329
	c6.36,0.03,13.656-0.414,9.743,9.915c-51.288,0.085-102.576,0.182-153.864,0.226c-3.657,0.004-8.575,0.834-8.545-4.693
	c0.028-4.868,4.39-5.468,8.386-5.5C215.653,291.446,228.384,291.363,241.115,291.272z"/>
<path fill-rule="evenodd" clip-rule="evenodd" fill="#FBFDFD" d="M78.157,315.521c-0.513-22.181,15.393-39.09,37.044-39.389
	c23.047-0.315,40.37,15.494,40.875,37.303c0.515,22.165-17.533,39.588-41.041,39.625c-2.494-2.847-2.794-6.013-1.395-9.426
	c2.083-3.366,5.815-3.196,9.021-4.147c12.634-3.748,21.404-15.649,20.279-27.554c-1.079-11.409-11.855-22.333-23.619-23.939
	c-11.243-1.539-23.091,6.684-27.501,18.974c-1.242,3.457-0.876,7.633-4.366,10.146C84.019,318.515,80.826,318.527,78.157,315.521z"
	/>
<path fill-rule="evenodd" clip-rule="evenodd" fill="#A8DEE5" d="M78.157,315.521c3.19,0.008,6.383,0.016,9.575,0.024
	c5.492,12.887,15.192,21.561,27.57,27.558c-0.089,3.318-0.178,6.637-0.267,9.957C94.454,351.725,80.067,337.08,78.157,315.521z"/>
<path fill-rule="evenodd" clip-rule="evenodd" fill="#FEFDFE" d="M956.461,462.695c0.212,8.558-3.645,10.793-11.646,8.19
	c-9.687-3.15-14.01-0.004-15.287,10.71c-0.435,3.639-0.891,6.87-5.129,7.786c-4.461,0.961-6.712-1.349-8.82-5.082
	c-5.769-10.222-10.241-11.146-19.001-4.251c-2.854,2.248-5.307,4.192-9.106,1.904c-3.707-2.229-3.584-5.294-2.882-8.909
	c2.607-13.416,1.981-14.365-10.708-17.622c-3.261-0.836-7.109-0.983-7.747-5.422c-0.685-4.771,2.958-6.336,6.268-8.272
	c10.27-6.013,10.644-11.742,1.496-20.596c-3.047-8.426,1.335-10.829,8.608-9.987c14.699,1.704,15.477,1.391,18.188-12.327
	c0.58-2.938,1.409-5.292,4.608-5.977c3.386-0.727,5.693,0.46,7.771,3.415c8.911,12.661,9.066,12.691,21.702,4.558
	c2.744-1.767,4.881-1.824,7.489-0.162c2.954,1.882,3.854,3.99,3.035,7.709c-3.217,14.639-2.977,14.936,11.924,18.974
	c2.818,0.763,5.324,0.939,5.494,4.656c0.149,3.338-0.737,5.674-3.735,7.724C945.696,448.797,945.687,449.671,956.461,462.695z"/>
<path fill-rule="evenodd" clip-rule="evenodd" fill="#7B97E2" d="M282.636,377.991c13.878,18.706,28.218,36.964,45.448,52.839
	c36.806,33.92,80.185,54.054,129.177,62.902c9.852,1.781,19.693,2.268,29.636,1.987c0.428,26.157,9.575,34.096,39.304,26.202
	c2.969-0.79,5.824-2.006,8.729-3.023c1.417,3.358,2.837,6.718,4.257,10.078c-10.133,6.712-9.979,18.364-12.213,28.178
	c-5.023,22.095-11.881,43.563-19.536,64.776c-4.016,11.128-8.61,21.925-23.498,23.969c-7.376,1.012-14.139,6.625-21.129,10.251
	c-2.93,1.521-5.07,3.623-3.774,7.389c-0.569,4.375-3.978,6.154-7.31,8.022c-15.019,8.41-30.256,16.396-45.697,24.012
	c-8.64,4.261-17.287,6.193-26.928,3.941c-5.989-1.398-12.19-1.994-18.375-2.592c-10.871-1.051-20.802,1.854-30.664,5.663
	c-6.748-1.706-4.216-7.303-4-11.117c2.043-36.36-5.291-71.024-19.055-104.377c-10.016-24.265-24.471-45.847-41.374-66.009
	c-26.577-31.701-60.015-53.674-96.987-70.993C205.587,424.385,244.554,401.887,282.636,377.991z"/>
<path fill-rule="evenodd" clip-rule="evenodd" fill="#FD8572" d="M596.827,784.787c-0.706,13.602-11.78,19.716-20.473,26.979
	c-24.095,20.141-52.968,29.535-83.268,35.74c-8.319,1.702-17.759,3.058-22.421,12.232c-16.256,0.253-31.627-5.948-47.767-6.57
	c-22.678-2.266-43.478-11.205-64.738-18.443c-2.641-0.898-7.313-1.868-4.759-6.98c5.095-2.944,10.07-0.961,14.942,0.56
	c21.129,6.597,42.617,10.556,64.867,10.347c11.485-0.107,13.589-1.396,13.739-12.556c0.194-14.436-0.154-28.879,0.119-43.311
	c0.169-8.987-4.178-13.704-12.204-16.794c-18.284-7.039-36.439-14.239-55.918-17.579c-6.849-1.173-13.649-1.248-20.487-1.736
	c-3.729-0.269-8.61,0.968-9.785-4.822c20.011,0.045,40.021,0.091,60.029,0.136c7.857,1.952,15.847,0.367,23.764,0.887
	c21.495,2.16,42.928-4.917,64.451-0.355c3.643,0.771,7.601,0.289,10.623,3.117c21.827,9.016,43.728,17.862,65.444,27.139
	C581.154,776.265,588.895,780.755,596.827,784.787z"/>
<path fill-rule="evenodd" clip-rule="evenodd" fill="#FD8572" d="M348.674,741.853c2.038,2.585,4.943,2.034,7.633,2.01
	c24.792-0.214,47.296,8.642,70.654,15.535c21.394,6.314,25.061,18.222,23.195,36.952c-1.052,10.57-0.168,21.331-0.196,32.006
	c-0.032,12.146-3.317,13.816-15.503,13.598c-25.292-0.452-49.695-4.753-73.558-12.889c-2.49-0.85-5.462-0.282-8.21-0.371
	c-9.948,2.623-16.891-3.459-24.234-8.374c-8.79-7.206-19.257-12.533-25.43-22.674c-6.68-26.104,4.963-45.893,31.297-53.246
	c2.908-0.812,6.272-0.218,8.648-2.736C344.875,741.726,346.774,741.79,348.674,741.853z"/>
<path fill-rule="evenodd" clip-rule="evenodd" fill="#F5B63C" d="M328.454,820.319c8.079,2.791,16.158,5.581,24.234,8.374
	c16.782,8.677,34.947,13.436,52.979,18.521c5.878,1.658,11.925,2.692,17.234,5.953c-23.835,7.83-48.27,10.672-73.239,8.499
	c-4.402-0.384-8.842-1.439-13.038-2.857C316.155,851.896,312.688,835.282,328.454,820.319z"/>
<path fill-rule="evenodd" clip-rule="evenodd" fill="#FDF6FA" d="M75.829,717.007c2.021-3.566,4.041-7.134,6.062-10.704
	c2.108,0.705,6.674-0.881,4.364,4.136c-5.301,11.507-10.825,22.911-16.245,34.364c-0.969,2.046-2.51,3.726-4.753,2.755
	c-2.905-1.259-0.902-3.398-0.189-5.113C68.598,733.941,74.048,726.253,75.829,717.007z"/>
<path fill-rule="evenodd" clip-rule="evenodd" fill="#FDF7FA" d="M103.863,727.034c-3.822-5.083-14.861-3.934-11.881-9.921
	c2.851-5.72,9.506,2.476,14.809,3.364c2.884,0.482,5.852,2.003,6.114,5.946c0.285,4.257-2.917,4.853-5.74,5.993
	c-1.585,0.643-3.085,1.919-4.683,2.021c-3.629,0.236-8.101,6.407-10.415,0.862c-1.773-4.244,4.707-4.363,7.725-6.04
	C100.943,728.623,102.101,727.997,103.863,727.034z"/>
<path fill-rule="evenodd" clip-rule="evenodd" fill="#FDF7FA" d="M55.019,737.96c-2.385-1.327-4.848-2.532-7.138-4.006
	c-3.681-2.371-10.199-2.04-9.193-9.024c0.365-2.536,16.083-10.324,18.633-9.356c0.743,0.282,1.745,1.436,1.654,2.043
	c-0.178,1.188-0.753,2.744-1.678,3.313c-3.083,1.898-6.393,3.429-9.947,5.271c3.449,3.701,7.633,4.163,11.419,5.466
	C59.766,735.103,59.408,737.731,55.019,737.96z"/>
<path fill-rule="evenodd" clip-rule="evenodd" fill="#889AE6" d="M507.542,745.637c-25.307-0.662-50.613-1.324-75.922-1.986
	c-0.935-0.319-1.302-0.983-1.183-1.945c9.541-0.044,19.085,0.035,28.624-0.173c6.522-0.144,10.98-2.205,7.433-10.012
	c-2.995-3.481-7.047-2.056-10.646-2.063c-39.154-0.099-78.309-0.064-117.465-0.066c-14.512-0.002-14.512-0.004-14.551-14.197
	c1.286-4.796,5.795-6.568,9.064-9.438c3.564-3.128,7.992-4.665,12.361-2.094c5.186,3.051,0.723,7.21,0.4,11.155
	c5.537-2.75,9.719-3.513,7.435,4.832c4.242-3.442,18.292-5.774,23.142-3.081c8.67,4.818,18.72,3.988,27.715,7.41
	c2.932,1.115,6.052-0.468,8.921-1.716c22.866-9.94,47.27-14.143,71.464-19.118c3.062-0.63,6.125-1.127,8.911,0.936
	c4.107,5.805,9.371,3.762,14.572,2.15c5-0.525,5.046,2.075,4.76,6.194C511.794,723.654,506.716,734.2,507.542,745.637z"/>
<path fill-rule="evenodd" clip-rule="evenodd" fill="#FEC0C5" d="M493.246,704.08c-27.831,5.528-55.989,9.807-82.146,21.723
	c-2.092,0.95-5.224,2.062-6.849,1.19c-9.46-5.074-21.368-1.642-30.056-8.86c-3.16-2.625-5.26-2.181-7.277,1.402
	c-1.313,2.334-3.029,4.611-6.201,5.141c-3.251-2.534,2.485-5.681-0.675-8.238c-3.37,3.18-5.439,7.8-10.263,10.211
	c-2.546-4.856,3.245-8.049,1.997-12.584c-0.882,0.531-1.662,0.965-2.405,1.452c-2.831,1.854-4.763,7.864-8.905,4.021
	c-3.927-3.647,2.712-5.024,3.552-7.956c0.594-2.074,3.804-4.101,1.006-6.161c-2.229-1.639-5.474-1.32-7.847,0.217
	c-4.586,2.972-8.911,6.346-13.345,9.555c-2.542-0.396-3.616-1.297-1.48-3.669c2.633-2.924,5.147-5.955,7.713-8.939
	c8.876-11.384,22.266-10.886,32.976-7.796c25.931,7.483,46.668-2.82,67.611-14.829c9.482-5.436,18.922-10.948,28.382-16.422
	c3.156,6.451,6.245,12.571,14.336,4.747c2.784-2.691,5.108-2.09,6.354,2.233c0.7,2.431,0.741,5.492,3.335,7.164
	C488.21,685.804,488.838,695.67,493.246,704.08z"/>
<path fill-rule="evenodd" clip-rule="evenodd" fill="#FD8E7E" d="M430.437,741.705c0.394,0.65,0.79,1.299,1.183,1.947
	c-7.639-0.556-15.524,2.283-22.916-1.664C415.949,741.894,423.191,741.801,430.437,741.705z"/>
<path fill-rule="evenodd" clip-rule="evenodd" fill="#FBBFC3" d="M543.125,440.435c-9.066,2.924-18.347,5.325-27.129,8.939
	c-6.816,2.807-11.994,3.506-16.008-3.943c-0.854-1.583-3.29-2.312-5-3.437c16.657-6.221,33.939-10.209,51.203-14.262
	C545.75,432.108,547.95,437.12,543.125,440.435z"/>
<path fill-rule="evenodd" clip-rule="evenodd" fill="#C2A9C2" d="M489.189,443.379c-1.702,4.297-3.404,8.592-5.347,13.488
	c-4.285-3.496-7.316-8.951-13.632-8.951C476.091,444.55,482.752,444.429,489.189,443.379z"/>
<path fill-rule="evenodd" clip-rule="evenodd" fill="#FCC1C6" d="M482.803,477.094c0.018-1.456,0.036-2.912,0.055-4.365
	c-3.007-3.851-3.027-7.685,0.061-11.505c5.217-0.303,3.681,4.895,5.73,7.216c3.013,3.419,5.664,7.421,10.841,6.149
	c5.063-1.242,7.295-5.668,6.625-10.308c-1.131-7.796,3.404-9.694,9.355-11.704c9.288-3.136,19.043-5.121,27.558-10.336
	c5.189,12.562,0.063,27.033-13.123,36.752c-5.691,4.196-9.988,8.444-18.221,1.343c-7.877-6.793-16.279,1.914-24.011,5.579
	C481.674,485.391,483.525,480.531,482.803,477.094z"/>
<path fill-rule="evenodd" clip-rule="evenodd" fill="#8998E3" d="M482.918,461.223c-0.021,3.838-0.039,7.675-0.059,11.509
	c-3.825,2.557-6.926,8.911-12.398,1.908c-4.589-5.874-5.411-17.846-1.104-21.022c2.942-2.17,5.028-0.426,7.146,1.512
	C478.68,457.124,479.045,461.027,482.918,461.223z"/>
<path fill-rule="evenodd" clip-rule="evenodd" fill="#F9C0C6" d="M503.794,461.796c-0.751,4.309-0.858,9.971-6.173,9.145
	c-7.98-1.244-8.676-8.687-8.943-15.176c-0.16-3.865-0.147-9.981,5.157-9.365C502.354,447.392,502.443,455.513,503.794,461.796z"/>
<path fill-rule="evenodd" clip-rule="evenodd" fill="#66C7D7" d="M115.302,343.103c-16.746-3.307-25.781-12.341-27.568-27.558
	c1.912-17.821,12.434-29.341,27.73-30.361c12.931-0.864,25.785,8.969,29.502,22.571
	C149.816,325.498,136.243,341.669,115.302,343.103z"/>
<path fill-rule="evenodd" clip-rule="evenodd" fill="#F387C1" d="M914.676,458.529c-9.488-0.07-18.07-8.58-17.889-17.739
	c0.174-8.739,8.699-17.149,17.428-17.193c9.234-0.046,17.541,8.519,17.509,18.052C931.691,451.242,924.261,458.598,914.676,458.529z
	"/>
</svg>
